{"title":"deadmau5 Meowingtons Hax 2k11 Toronto HDRip Xvid {1337x}-aSBo","uid":7042223,"size":1134913265,"categoryP":"audio","categoryS":"music","magnet":"?xt=urn:btih:92619dc2aee552a487b92b155a30e138bb5f46db&amp;dn=deadmau5+Meowingtons+Hax+2k11+Toronto+HDRip+Xvid+%7B1337x%7D-aSBo&amp;tr=udp%3A%2F%2Ftracker.openbittorrent.com%3A80&amp;tr=udp%3A%2F%2Fopen.demonii.com%3A1337&amp;tr=udp%3A%2F%2Ftracker.coppersurfer.tk%3A6969&amp;tr=udp%3A%2F%2Fexodus.desync.com%3A6969","seeders":1,"leechers":0,"uploader":"xtrancex","files":-1,"time":1329591072,"description":"Name: deadmau5: Meowingtons Hax 2k11 Toronto\nLabel : Parlophone\nProduct Code : P9540959\nRelease Date : 20-02-12\nSize : 1.05 GB (1,134,551,040 bytes)\nGenre : Electronic\nStyle : House, Trance, Progressive, Electro, Dubstep\n\n\n\nTracklist:\n\n01. Where My Keys\n02. Bad Selection\n03. Maths\n04. Reward Is More Cheese\n05. Some Chords/Tiny Dancer\n06. Secondary Complications/Sometimes Things Get, Whatever\n07. Cthulhu Sleeps\n08. Arguru\n09. Asdfghjkl\n10. Hr 8938 Cephei\n11. Jaded\n12. Slip\n13. Aural Psynapse\n14. October/Raise Your Weapon\n15. Raise Your Weapon (Noisia Remix)\n16. Sofi Needs A Ladder\n17. One Trick Pony\n18. FML/I Remember\n19. Professional Griefers\n20. Moar Ghosts N Stuff\n21. Ghosts N Stuff\n22. Limit Break\n23. Animal Rights\n24. Get In The Cart, Pig\n25. Strobe\n\n\nGeneral\n\nFormat : AVI\nFormat/Info : Audio Video Interleave\nFile size : 1.06 GiB\nDuration : 1h 53mn\nOverall bit rate : 1331 Kbps\n\nVideo\n\nID : 0\nFormat : AVC\nFormat/Info : Advanced Video Codec\nFormat profile : &lt;a class=&quot;__cf_email__&quot; href=&quot;/cdn-cgi/l/email-protection&quot; data-cfemail=&quot;9ad7fbf3f4dad6afb4ab&quot;&gt;[email&amp;#160;protected]&lt;/a&gt;&lt;script cf-hash='f9e31' type=&quot;text/javascript&quot;&gt;\n/* &lt;![CDATA[ */!function(){try{var t=&quot;currentScript&quot;in document?document.currentScript:function(){for(var t=document.getElementsByTagName(&quot;script&quot;),e=t.length;e--;)if(t[e].getAttribute(&quot;cf-hash&quot;))return t[e]}();if(t&amp;&amp;t.previousSibling){var e,r,n,i,c=t.previousSibling,a=c.getAttribute(&quot;data-cfemail&quot;);if(a){for(e=&quot;&quot;,r=parseInt(a.substr(0,2),16),n=2;a.length-n;n+=2)i=parseInt(a.substr(n,2),16)^r,e+=String.fromCharCode(i);e=document.createTextNode(e),c.parentNode.replaceChild(e,c)}}}catch(u){}}();/* ]]&gt; */&lt;/script&gt;\nFormat settings, CABAC : Yes\nFormat settings, ReFrames : 1 frame\nCodec ID : H264\nDuration : 1h 53mn\nBit rate : 1 194 Kbps\nWidth : 720 pixels\nHeight : 480 pixels\nDisplay aspect ratio : 3:2\nFrame rate : 23.976 fps\nStandard : NTSC\nColor space : YUV\nChroma subsampling : 4:2:0\nBit depth : 8 bits\nScan type : Progressive\nBits/(Pixel*Frame) : 0.144\nStream size : 970 MiB (90%)\n\nAudio\n\nID : 1\nFormat : MPEG Audio\nFormat version : Version 1\nFormat profile : Layer 3\nCodec ID : 55\nCodec ID/Hint : MP3\nDuration : 1h 53mn\nBit rate mode : Constant\nBit rate : 128 Kbps\nChannel(s) : 2 channels\nSampling rate : 44.1 KHz\nCompression mode : Lossy\nStream size : 104 MiB (10%)\nAlignment : Split accross interleaves\nInterleave, duration : 42 ms (1.00 video frame)\nWriting library : LAMELAME_MAJOR_VERSI\n\n\nScreens:\n &lt;a href=&quot;\nhttp://s13.postimage.org/h4te1cpp3/57m24s48.png&quot; rel=&quot;nofollow&quot; target=&quot;_NEW&quot;&gt;\nhttp://s13.postimage.org/h4te1cpp3/57m24s48.png&lt;/a&gt; &lt;a href=&quot;\nhttp://s8.postimage.org/cxhuqt5px/57m26s70.png&quot; rel=&quot;nofollow&quot; target=&quot;_NEW&quot;&gt;\nhttp://s8.postimage.org/cxhuqt5px/57m26s70.png&lt;/a&gt; &lt;a href=&quot;\nhttp://s14.postimage.org/c7z41yf4x/58m24s134.png&quot; rel=&quot;nofollow&quot; target=&quot;_NEW&quot;&gt;\nhttp://s14.postimage.org/c7z41yf4x/58m24s134.png&lt;/a&gt; &lt;a href=&quot;\nhttp://s15.postimage.org/ophat0e97/58m47s111.png&quot; rel=&quot;nofollow&quot; target=&quot;_NEW&quot;&gt;\nhttp://s15.postimage.org/ophat0e97/58m47s111.png&lt;/a&gt; &lt;a href=&quot;\nhttp://s13.postimage.org/r62toes5z/58m51s147.png&quot; rel=&quot;nofollow&quot; target=&quot;_NEW&quot;&gt;\nhttp://s13.postimage.org/r62toes5z/58m51s147.png&lt;/a&gt; &lt;a href=&quot;\nhttp://s17.postimage.org/ltt3e3arj/59m21s197.png&quot; rel=&quot;nofollow&quot; target=&quot;_NEW&quot;&gt;\nhttp://s17.postimage.org/ltt3e3arj/59m21s197.png&lt;/a&gt;\n\n\nPowered By Blazinseedboxes.com","torrent":{"xt":"urn:btih:92619dc2aee552a487b92b155a30e138bb5f46db","amp;dn":"deadmau5+Meowingtons+Hax+2k11+Toronto+HDRip+Xvid+%7B1337x%7D-aSBo","amp;tr":["udp%3A%2F%2Ftracker.openbittorrent.com%3A80","udp%3A%2F%2Fopen.demonii.com%3A1337","udp%3A%2F%2Ftracker.coppersurfer.tk%3A6969","udp%3A%2F%2Fexodus.desync.com%3A6969"],"infoHash":"92619dc2aee552a487b92b155a30e138bb5f46db","infoHashBuffer":{"type":"Buffer","data":[146,97,157,194,174,229,82,164,135,185,43,21,90,48,225,56,187,95,70,219]},"announce":[],"urlList":[]}}